<mxfile host="app.diagrams.net" modified="2024-05-03T09:00:46.649Z" agent="Mozilla/5.0 (Windows NT 10.0; Win64; x64) AppleWebKit/537.36 (KHTML, like Gecko) Chrome/124.0.0.0 Safari/537.36" etag="FA5zpx4PWiNrhleIY9TS" version="24.3.1" type="github">
  <diagram name="Page-1" id="zKwDua3kJF2zBZ0jL4yc">
    <mxGraphModel dx="2853" dy="1170" grid="1" gridSize="10" guides="1" tooltips="1" connect="1" arrows="1" fold="1" page="1" pageScale="1" pageWidth="827" pageHeight="1169" math="0" shadow="0">
      <root>
        <mxCell id="0" />
        <mxCell id="1" parent="0" />
        <mxCell id="lww95HlzMORuhR9WTPA--2" value="On-Site Serve&lt;span style=&quot;background-color: initial;&quot;&gt;r&lt;/span&gt;&lt;div&gt;&lt;span style=&quot;background-color: initial;&quot;&gt;[GOS]&lt;/span&gt;&lt;/div&gt;" style="verticalLabelPosition=bottom;html=1;verticalAlign=top;align=center;shape=mxgraph.azure.server_rack;fillColor=#f5f5f5;strokeColor=#666666;fontColor=#333333;" vertex="1" parent="1">
          <mxGeometry x="195" y="10" width="50" height="50" as="geometry" />
        </mxCell>
        <mxCell id="lww95HlzMORuhR9WTPA--10" value="" style="group" vertex="1" connectable="0" parent="1">
          <mxGeometry x="-780" y="170" width="280" height="219" as="geometry" />
        </mxCell>
        <mxCell id="lww95HlzMORuhR9WTPA--3" value="" style="strokeColor=#666666;html=1;verticalLabelPosition=bottom;labelBackgroundColor=#ffffff;verticalAlign=top;outlineConnect=0;shadow=0;dashed=0;shape=mxgraph.rackGeneral.rackCabinet3;fillColor2=#f4f4f4;container=1;collapsible=0;childLayout=rack;allowGaps=1;marginLeft=9;marginRight=9;marginTop=21;marginBottom=22;textColor=#666666;numDisp=off;" vertex="1" parent="lww95HlzMORuhR9WTPA--10">
          <mxGeometry width="180" height="219" as="geometry" />
        </mxCell>
        <mxCell id="lww95HlzMORuhR9WTPA--4" value="DELL PowerEdge R960" style="strokeColor=#666666;html=1;labelPosition=right;align=left;spacingLeft=15;shadow=0;dashed=0;outlineConnect=0;shape=mxgraph.rack.dell.poweredge_r7515;" vertex="1" parent="lww95HlzMORuhR9WTPA--3">
          <mxGeometry x="9" y="110" width="162" height="30" as="geometry" />
        </mxCell>
        <mxCell id="lww95HlzMORuhR9WTPA--5" value="Cisco 1962 Switch" style="shape=mxgraph.rack.cisco.cisco_catalyst_4948_10_gigabit_ethernet_switch;html=1;labelPosition=right;align=left;spacingLeft=15;dashed=0;shadow=0;fillColor=#ffffff;" vertex="1" parent="lww95HlzMORuhR9WTPA--3">
          <mxGeometry x="9" y="155" width="162" height="15" as="geometry" />
        </mxCell>
        <mxCell id="lww95HlzMORuhR9WTPA--6" value="" style="strokeColor=#666666;html=1;labelPosition=right;align=left;spacingLeft=15;shadow=0;dashed=0;outlineConnect=0;shape=mxgraph.rackGeneral.horCableDuct;" vertex="1" parent="lww95HlzMORuhR9WTPA--3">
          <mxGeometry x="9" y="140" width="162" height="15" as="geometry" />
        </mxCell>
        <mxCell id="lww95HlzMORuhR9WTPA--9" value="Terminal PC" style="html=1;verticalLabelPosition=bottom;align=center;labelBackgroundColor=#ffffff;verticalAlign=top;strokeWidth=2;shadow=0;dashed=0;shape=mxgraph.ios7.icons.monitor;fillColor=#f5f5f5;fontColor=#333333;strokeColor=#666666;" vertex="1" parent="lww95HlzMORuhR9WTPA--10">
          <mxGeometry x="200" y="20" width="80" height="50" as="geometry" />
        </mxCell>
        <mxCell id="lww95HlzMORuhR9WTPA--11" value="Diagram For On-Site Server&lt;div&gt;[UNITS ALIKE]&lt;/div&gt;" style="text;html=1;align=center;verticalAlign=middle;resizable=0;points=[];autosize=1;strokeColor=none;fillColor=none;" vertex="1" parent="1">
          <mxGeometry x="-780" y="403" width="170" height="40" as="geometry" />
        </mxCell>
        <mxCell id="lww95HlzMORuhR9WTPA--12" value="GF-PC-00 [S]" style="html=1;verticalLabelPosition=bottom;align=center;labelBackgroundColor=#ffffff;verticalAlign=top;strokeWidth=2;shadow=0;dashed=0;shape=mxgraph.ios7.icons.monitor;fillColor=#f5f5f5;fontColor=#333333;strokeColor=#666666;" vertex="1" parent="1">
          <mxGeometry x="95" y="150" width="80" height="50" as="geometry" />
        </mxCell>
        <mxCell id="lww95HlzMORuhR9WTPA--13" value="GF-PC-01 [S]" style="html=1;verticalLabelPosition=bottom;align=center;labelBackgroundColor=#ffffff;verticalAlign=top;strokeWidth=2;shadow=0;dashed=0;shape=mxgraph.ios7.icons.monitor;fillColor=#f5f5f5;fontColor=#333333;strokeColor=#666666;" vertex="1" parent="1">
          <mxGeometry x="195" y="150" width="80" height="50" as="geometry" />
        </mxCell>
        <mxCell id="lww95HlzMORuhR9WTPA--14" value="GF-PC-02 [C]" style="html=1;verticalLabelPosition=bottom;align=center;labelBackgroundColor=#ffffff;verticalAlign=top;strokeWidth=2;shadow=0;dashed=0;shape=mxgraph.ios7.icons.monitor;fillColor=#f5f5f5;fontColor=#333333;strokeColor=#666666;" vertex="1" parent="1">
          <mxGeometry x="295" y="150" width="80" height="50" as="geometry" />
        </mxCell>
        <mxCell id="lww95HlzMORuhR9WTPA--16" value="FF-PC-00 [S]" style="html=1;verticalLabelPosition=bottom;align=center;labelBackgroundColor=#ffffff;verticalAlign=top;strokeWidth=2;shadow=0;dashed=0;shape=mxgraph.ios7.icons.monitor;fillColor=#f5f5f5;fontColor=#333333;strokeColor=#666666;" vertex="1" parent="1">
          <mxGeometry x="95" y="250" width="80" height="50" as="geometry" />
        </mxCell>
        <mxCell id="lww95HlzMORuhR9WTPA--17" value="FF-PC-01 [C]" style="html=1;verticalLabelPosition=bottom;align=center;labelBackgroundColor=#ffffff;verticalAlign=top;strokeWidth=2;shadow=0;dashed=0;shape=mxgraph.ios7.icons.monitor;fillColor=#f5f5f5;fontColor=#333333;strokeColor=#666666;" vertex="1" parent="1">
          <mxGeometry x="195" y="250" width="80" height="50" as="geometry" />
        </mxCell>
        <mxCell id="lww95HlzMORuhR9WTPA--18" value="FF-PC-02 [C]" style="html=1;verticalLabelPosition=bottom;align=center;labelBackgroundColor=#ffffff;verticalAlign=top;strokeWidth=2;shadow=0;dashed=0;shape=mxgraph.ios7.icons.monitor;fillColor=#f5f5f5;fontColor=#333333;strokeColor=#666666;" vertex="1" parent="1">
          <mxGeometry x="295" y="250" width="80" height="50" as="geometry" />
        </mxCell>
        <mxCell id="lww95HlzMORuhR9WTPA--19" value="MF-PC-00 [C]" style="html=1;verticalLabelPosition=bottom;align=center;labelBackgroundColor=#ffffff;verticalAlign=top;strokeWidth=2;shadow=0;dashed=0;shape=mxgraph.ios7.icons.monitor;fillColor=#f5f5f5;fontColor=#333333;strokeColor=#666666;" vertex="1" parent="1">
          <mxGeometry x="95" y="350" width="80" height="50" as="geometry" />
        </mxCell>
        <mxCell id="lww95HlzMORuhR9WTPA--20" value="MF-PC-01 [C]" style="html=1;verticalLabelPosition=bottom;align=center;labelBackgroundColor=#ffffff;verticalAlign=top;strokeWidth=2;shadow=0;dashed=0;shape=mxgraph.ios7.icons.monitor;fillColor=#f5f5f5;fontColor=#333333;strokeColor=#666666;" vertex="1" parent="1">
          <mxGeometry x="195" y="350" width="80" height="50" as="geometry" />
        </mxCell>
        <mxCell id="lww95HlzMORuhR9WTPA--21" value="MF-PC-02 [C]" style="html=1;verticalLabelPosition=bottom;align=center;labelBackgroundColor=#ffffff;verticalAlign=top;strokeWidth=2;shadow=0;dashed=0;shape=mxgraph.ios7.icons.monitor;fillColor=#f5f5f5;fontColor=#333333;strokeColor=#666666;" vertex="1" parent="1">
          <mxGeometry x="295" y="350" width="80" height="50" as="geometry" />
        </mxCell>
        <mxCell id="lww95HlzMORuhR9WTPA--22" value="SF-PC-00 [S/A]" style="html=1;verticalLabelPosition=bottom;align=center;labelBackgroundColor=#ffffff;verticalAlign=top;strokeWidth=2;shadow=0;dashed=0;shape=mxgraph.ios7.icons.monitor;fillColor=#f5f5f5;fontColor=#333333;strokeColor=#666666;" vertex="1" parent="1">
          <mxGeometry x="-5" y="440" width="80" height="50" as="geometry" />
        </mxCell>
        <mxCell id="lww95HlzMORuhR9WTPA--23" value="SF-PC-01 [C]" style="html=1;verticalLabelPosition=bottom;align=center;labelBackgroundColor=#ffffff;verticalAlign=top;strokeWidth=2;shadow=0;dashed=0;shape=mxgraph.ios7.icons.monitor;fillColor=#f5f5f5;fontColor=#333333;strokeColor=#666666;" vertex="1" parent="1">
          <mxGeometry x="95" y="440" width="80" height="50" as="geometry" />
        </mxCell>
        <mxCell id="lww95HlzMORuhR9WTPA--24" value="SF-PC-02 [C]" style="html=1;verticalLabelPosition=bottom;align=center;labelBackgroundColor=#ffffff;verticalAlign=top;strokeWidth=2;shadow=0;dashed=0;shape=mxgraph.ios7.icons.monitor;fillColor=#f5f5f5;fontColor=#333333;strokeColor=#666666;" vertex="1" parent="1">
          <mxGeometry x="195" y="440" width="80" height="50" as="geometry" />
        </mxCell>
        <mxCell id="lww95HlzMORuhR9WTPA--25" value="SF-PC-03 [C]" style="html=1;verticalLabelPosition=bottom;align=center;labelBackgroundColor=#ffffff;verticalAlign=top;strokeWidth=2;shadow=0;dashed=0;shape=mxgraph.ios7.icons.monitor;fillColor=#f5f5f5;fontColor=#333333;strokeColor=#666666;" vertex="1" parent="1">
          <mxGeometry x="295" y="440" width="80" height="50" as="geometry" />
        </mxCell>
        <mxCell id="lww95HlzMORuhR9WTPA--26" value="SF-PC-04 [C]" style="html=1;verticalLabelPosition=bottom;align=center;labelBackgroundColor=#ffffff;verticalAlign=top;strokeWidth=2;shadow=0;dashed=0;shape=mxgraph.ios7.icons.monitor;fillColor=#f5f5f5;fontColor=#333333;strokeColor=#666666;" vertex="1" parent="1">
          <mxGeometry x="395" y="440" width="80" height="50" as="geometry" />
        </mxCell>
        <mxCell id="lww95HlzMORuhR9WTPA--27" value="SF-PC-05 [C]" style="html=1;verticalLabelPosition=bottom;align=center;labelBackgroundColor=#ffffff;verticalAlign=top;strokeWidth=2;shadow=0;dashed=0;shape=mxgraph.ios7.icons.monitor;fillColor=#f5f5f5;fontColor=#333333;strokeColor=#666666;" vertex="1" parent="1">
          <mxGeometry x="-5" y="535" width="80" height="50" as="geometry" />
        </mxCell>
        <mxCell id="lww95HlzMORuhR9WTPA--28" value="SF-PC-06 [C]" style="html=1;verticalLabelPosition=bottom;align=center;labelBackgroundColor=#ffffff;verticalAlign=top;strokeWidth=2;shadow=0;dashed=0;shape=mxgraph.ios7.icons.monitor;fillColor=#f5f5f5;fontColor=#333333;strokeColor=#666666;" vertex="1" parent="1">
          <mxGeometry x="95" y="535" width="80" height="50" as="geometry" />
        </mxCell>
        <mxCell id="lww95HlzMORuhR9WTPA--29" value="SF-PC-07 [C]" style="html=1;verticalLabelPosition=bottom;align=center;labelBackgroundColor=#ffffff;verticalAlign=top;strokeWidth=2;shadow=0;dashed=0;shape=mxgraph.ios7.icons.monitor;fillColor=#f5f5f5;fontColor=#333333;strokeColor=#666666;" vertex="1" parent="1">
          <mxGeometry x="195" y="535" width="80" height="50" as="geometry" />
        </mxCell>
        <mxCell id="lww95HlzMORuhR9WTPA--30" value="SF-PC-08 [C]" style="html=1;verticalLabelPosition=bottom;align=center;labelBackgroundColor=#ffffff;verticalAlign=top;strokeWidth=2;shadow=0;dashed=0;shape=mxgraph.ios7.icons.monitor;fillColor=#f5f5f5;fontColor=#333333;strokeColor=#666666;" vertex="1" parent="1">
          <mxGeometry x="295" y="535" width="80" height="50" as="geometry" />
        </mxCell>
        <mxCell id="lww95HlzMORuhR9WTPA--31" value="SF-PC-09 [C]" style="html=1;verticalLabelPosition=bottom;align=center;labelBackgroundColor=#ffffff;verticalAlign=top;strokeWidth=2;shadow=0;dashed=0;shape=mxgraph.ios7.icons.monitor;fillColor=#f5f5f5;fontColor=#333333;strokeColor=#666666;" vertex="1" parent="1">
          <mxGeometry x="395" y="535" width="80" height="50" as="geometry" />
        </mxCell>
        <mxCell id="lww95HlzMORuhR9WTPA--32" value="TF-PC-00 [A]&lt;div&gt;(WORKSHOP)&lt;/div&gt;" style="html=1;verticalLabelPosition=bottom;align=center;labelBackgroundColor=#ffffff;verticalAlign=top;strokeWidth=2;shadow=0;dashed=0;shape=mxgraph.ios7.icons.monitor;fillColor=#f5f5f5;fontColor=#333333;strokeColor=#666666;" vertex="1" parent="1">
          <mxGeometry x="-5" y="630" width="80" height="50" as="geometry" />
        </mxCell>
        <mxCell id="lww95HlzMORuhR9WTPA--33" value="TF-PC-01 [A]&lt;div&gt;(WORKSHOP)&lt;/div&gt;" style="html=1;verticalLabelPosition=bottom;align=center;labelBackgroundColor=#ffffff;verticalAlign=top;strokeWidth=2;shadow=0;dashed=0;shape=mxgraph.ios7.icons.monitor;fillColor=#f5f5f5;fontColor=#333333;strokeColor=#666666;" vertex="1" parent="1">
          <mxGeometry x="95" y="630" width="80" height="50" as="geometry" />
        </mxCell>
        <mxCell id="lww95HlzMORuhR9WTPA--34" value="TF-PC-02 [S]" style="html=1;verticalLabelPosition=bottom;align=center;labelBackgroundColor=#ffffff;verticalAlign=top;strokeWidth=2;shadow=0;dashed=0;shape=mxgraph.ios7.icons.monitor;fillColor=#f5f5f5;fontColor=#333333;strokeColor=#666666;" vertex="1" parent="1">
          <mxGeometry x="195" y="630" width="80" height="50" as="geometry" />
        </mxCell>
        <mxCell id="lww95HlzMORuhR9WTPA--35" value="TF-PC-03 [S]" style="html=1;verticalLabelPosition=bottom;align=center;labelBackgroundColor=#ffffff;verticalAlign=top;strokeWidth=2;shadow=0;dashed=0;shape=mxgraph.ios7.icons.monitor;fillColor=#f5f5f5;fontColor=#333333;strokeColor=#666666;" vertex="1" parent="1">
          <mxGeometry x="295" y="630" width="80" height="50" as="geometry" />
        </mxCell>
        <mxCell id="lww95HlzMORuhR9WTPA--36" value="TF-PC-04 [S]" style="html=1;verticalLabelPosition=bottom;align=center;labelBackgroundColor=#ffffff;verticalAlign=top;strokeWidth=2;shadow=0;dashed=0;shape=mxgraph.ios7.icons.monitor;fillColor=#f5f5f5;fontColor=#333333;strokeColor=#666666;" vertex="1" parent="1">
          <mxGeometry x="395" y="630" width="80" height="50" as="geometry" />
        </mxCell>
        <mxCell id="lww95HlzMORuhR9WTPA--37" value="&lt;div&gt;TF-PC-05 [S]&lt;/div&gt;" style="html=1;verticalLabelPosition=bottom;align=center;labelBackgroundColor=#ffffff;verticalAlign=top;strokeWidth=2;shadow=0;dashed=0;shape=mxgraph.ios7.icons.monitor;fillColor=#f5f5f5;fontColor=#333333;strokeColor=#666666;" vertex="1" parent="1">
          <mxGeometry x="-5" y="760" width="80" height="50" as="geometry" />
        </mxCell>
        <mxCell id="lww95HlzMORuhR9WTPA--38" value="TF-PC-06 [S]" style="html=1;verticalLabelPosition=bottom;align=center;labelBackgroundColor=#ffffff;verticalAlign=top;strokeWidth=2;shadow=0;dashed=0;shape=mxgraph.ios7.icons.monitor;fillColor=#f5f5f5;fontColor=#333333;strokeColor=#666666;" vertex="1" parent="1">
          <mxGeometry x="95" y="760" width="80" height="50" as="geometry" />
        </mxCell>
        <mxCell id="lww95HlzMORuhR9WTPA--39" value="TF-PC-07 [S]" style="html=1;verticalLabelPosition=bottom;align=center;labelBackgroundColor=#ffffff;verticalAlign=top;strokeWidth=2;shadow=0;dashed=0;shape=mxgraph.ios7.icons.monitor;fillColor=#f5f5f5;fontColor=#333333;strokeColor=#666666;" vertex="1" parent="1">
          <mxGeometry x="195" y="760" width="80" height="50" as="geometry" />
        </mxCell>
        <mxCell id="lww95HlzMORuhR9WTPA--40" value="TF-PC-08 [S]" style="html=1;verticalLabelPosition=bottom;align=center;labelBackgroundColor=#ffffff;verticalAlign=top;strokeWidth=2;shadow=0;dashed=0;shape=mxgraph.ios7.icons.monitor;fillColor=#f5f5f5;fontColor=#333333;strokeColor=#666666;" vertex="1" parent="1">
          <mxGeometry x="295" y="760" width="80" height="50" as="geometry" />
        </mxCell>
        <mxCell id="lww95HlzMORuhR9WTPA--41" value="TF-PC-09 [S]" style="html=1;verticalLabelPosition=bottom;align=center;labelBackgroundColor=#ffffff;verticalAlign=top;strokeWidth=2;shadow=0;dashed=0;shape=mxgraph.ios7.icons.monitor;fillColor=#f5f5f5;fontColor=#333333;strokeColor=#666666;" vertex="1" parent="1">
          <mxGeometry x="395" y="760" width="80" height="50" as="geometry" />
        </mxCell>
        <mxCell id="lww95HlzMORuhR9WTPA--51" style="edgeStyle=orthogonalEdgeStyle;rounded=0;orthogonalLoop=1;jettySize=auto;html=1;" edge="1" parent="1" source="lww95HlzMORuhR9WTPA--43" target="lww95HlzMORuhR9WTPA--18">
          <mxGeometry relative="1" as="geometry">
            <Array as="points">
              <mxPoint x="495" y="230" />
              <mxPoint x="335" y="230" />
            </Array>
          </mxGeometry>
        </mxCell>
        <mxCell id="lww95HlzMORuhR9WTPA--53" style="edgeStyle=orthogonalEdgeStyle;rounded=0;orthogonalLoop=1;jettySize=auto;html=1;" edge="1" parent="1" source="lww95HlzMORuhR9WTPA--43" target="lww95HlzMORuhR9WTPA--16">
          <mxGeometry relative="1" as="geometry">
            <Array as="points">
              <mxPoint x="495" y="230" />
              <mxPoint x="135" y="230" />
            </Array>
          </mxGeometry>
        </mxCell>
        <mxCell id="lww95HlzMORuhR9WTPA--54" style="edgeStyle=orthogonalEdgeStyle;rounded=0;orthogonalLoop=1;jettySize=auto;html=1;" edge="1" parent="1" source="lww95HlzMORuhR9WTPA--43" target="lww95HlzMORuhR9WTPA--21">
          <mxGeometry relative="1" as="geometry">
            <Array as="points">
              <mxPoint x="495" y="340" />
              <mxPoint x="335" y="340" />
            </Array>
          </mxGeometry>
        </mxCell>
        <mxCell id="lww95HlzMORuhR9WTPA--55" style="edgeStyle=orthogonalEdgeStyle;rounded=0;orthogonalLoop=1;jettySize=auto;html=1;" edge="1" parent="1" source="lww95HlzMORuhR9WTPA--43" target="lww95HlzMORuhR9WTPA--20">
          <mxGeometry relative="1" as="geometry">
            <Array as="points">
              <mxPoint x="495" y="340" />
              <mxPoint x="235" y="340" />
            </Array>
          </mxGeometry>
        </mxCell>
        <mxCell id="lww95HlzMORuhR9WTPA--56" style="edgeStyle=orthogonalEdgeStyle;rounded=0;orthogonalLoop=1;jettySize=auto;html=1;" edge="1" parent="1" source="lww95HlzMORuhR9WTPA--43" target="lww95HlzMORuhR9WTPA--19">
          <mxGeometry relative="1" as="geometry">
            <Array as="points">
              <mxPoint x="495" y="340" />
              <mxPoint x="135" y="340" />
            </Array>
          </mxGeometry>
        </mxCell>
        <mxCell id="lww95HlzMORuhR9WTPA--43" value="" style="strokeColor=#666666;html=1;verticalLabelPosition=bottom;labelBackgroundColor=#ffffff;verticalAlign=top;outlineConnect=0;shadow=0;dashed=0;shape=mxgraph.rackGeneral.rackCabinet3;fillColor2=#f4f4f4;container=1;collapsible=0;childLayout=rack;allowGaps=1;marginLeft=9;marginRight=9;marginTop=21;marginBottom=22;textColor=#666666;numDisp=off;" vertex="1" parent="1">
          <mxGeometry x="580" y="150" width="130" height="70" as="geometry" />
        </mxCell>
        <mxCell id="lww95HlzMORuhR9WTPA--44" value="" style="strokeColor=#666666;html=1;labelPosition=right;align=left;spacingLeft=15;shadow=0;dashed=0;outlineConnect=0;shape=mxgraph.rack.general.cat5e_enhanced_patch_panel_48_ports;" vertex="1" parent="lww95HlzMORuhR9WTPA--43">
          <mxGeometry x="9" y="21" width="112" height="19" as="geometry" />
        </mxCell>
        <mxCell id="lww95HlzMORuhR9WTPA--47" style="edgeStyle=orthogonalEdgeStyle;rounded=0;orthogonalLoop=1;jettySize=auto;html=1;entryX=0.475;entryY=0;entryDx=0;entryDy=0;entryPerimeter=0;" edge="1" parent="1" source="lww95HlzMORuhR9WTPA--43" target="lww95HlzMORuhR9WTPA--12">
          <mxGeometry relative="1" as="geometry">
            <Array as="points">
              <mxPoint x="495" y="130" />
              <mxPoint x="133" y="130" />
            </Array>
          </mxGeometry>
        </mxCell>
        <mxCell id="lww95HlzMORuhR9WTPA--49" style="edgeStyle=orthogonalEdgeStyle;rounded=0;orthogonalLoop=1;jettySize=auto;html=1;entryX=0.463;entryY=0;entryDx=0;entryDy=0;entryPerimeter=0;" edge="1" parent="1" target="lww95HlzMORuhR9WTPA--14">
          <mxGeometry relative="1" as="geometry">
            <mxPoint x="495" y="130" as="sourcePoint" />
          </mxGeometry>
        </mxCell>
        <mxCell id="lww95HlzMORuhR9WTPA--50" style="edgeStyle=orthogonalEdgeStyle;rounded=0;orthogonalLoop=1;jettySize=auto;html=1;entryX=0.475;entryY=0.02;entryDx=0;entryDy=0;entryPerimeter=0;" edge="1" parent="1" target="lww95HlzMORuhR9WTPA--13">
          <mxGeometry relative="1" as="geometry">
            <mxPoint x="495" y="130" as="sourcePoint" />
          </mxGeometry>
        </mxCell>
        <mxCell id="lww95HlzMORuhR9WTPA--52" style="edgeStyle=orthogonalEdgeStyle;rounded=0;orthogonalLoop=1;jettySize=auto;html=1;entryX=0.475;entryY=0;entryDx=0;entryDy=0;entryPerimeter=0;" edge="1" parent="1" source="lww95HlzMORuhR9WTPA--43" target="lww95HlzMORuhR9WTPA--17">
          <mxGeometry relative="1" as="geometry">
            <Array as="points">
              <mxPoint x="495" y="230" />
              <mxPoint x="233" y="230" />
            </Array>
          </mxGeometry>
        </mxCell>
        <mxCell id="lww95HlzMORuhR9WTPA--75" style="edgeStyle=orthogonalEdgeStyle;rounded=0;orthogonalLoop=1;jettySize=auto;html=1;" edge="1" parent="1" source="lww95HlzMORuhR9WTPA--57">
          <mxGeometry relative="1" as="geometry">
            <mxPoint x="435" y="630" as="targetPoint" />
            <Array as="points">
              <mxPoint x="645" y="620" />
              <mxPoint x="435" y="620" />
            </Array>
          </mxGeometry>
        </mxCell>
        <mxCell id="lww95HlzMORuhR9WTPA--76" style="edgeStyle=orthogonalEdgeStyle;rounded=0;orthogonalLoop=1;jettySize=auto;html=1;" edge="1" parent="1" source="lww95HlzMORuhR9WTPA--57" target="lww95HlzMORuhR9WTPA--35">
          <mxGeometry relative="1" as="geometry">
            <Array as="points">
              <mxPoint x="645" y="620" />
              <mxPoint x="335" y="620" />
            </Array>
          </mxGeometry>
        </mxCell>
        <mxCell id="lww95HlzMORuhR9WTPA--77" style="edgeStyle=orthogonalEdgeStyle;rounded=0;orthogonalLoop=1;jettySize=auto;html=1;" edge="1" parent="1" source="lww95HlzMORuhR9WTPA--57" target="lww95HlzMORuhR9WTPA--34">
          <mxGeometry relative="1" as="geometry">
            <Array as="points">
              <mxPoint x="645" y="620" />
              <mxPoint x="235" y="620" />
            </Array>
          </mxGeometry>
        </mxCell>
        <mxCell id="lww95HlzMORuhR9WTPA--78" style="edgeStyle=orthogonalEdgeStyle;rounded=0;orthogonalLoop=1;jettySize=auto;html=1;" edge="1" parent="1" source="lww95HlzMORuhR9WTPA--57" target="lww95HlzMORuhR9WTPA--33">
          <mxGeometry relative="1" as="geometry">
            <Array as="points">
              <mxPoint x="645" y="620" />
              <mxPoint x="135" y="620" />
            </Array>
          </mxGeometry>
        </mxCell>
        <mxCell id="lww95HlzMORuhR9WTPA--79" style="edgeStyle=orthogonalEdgeStyle;rounded=0;orthogonalLoop=1;jettySize=auto;html=1;" edge="1" parent="1" source="lww95HlzMORuhR9WTPA--57" target="lww95HlzMORuhR9WTPA--32">
          <mxGeometry relative="1" as="geometry">
            <Array as="points">
              <mxPoint x="645" y="620" />
              <mxPoint x="35" y="620" />
            </Array>
          </mxGeometry>
        </mxCell>
        <mxCell id="lww95HlzMORuhR9WTPA--81" style="edgeStyle=orthogonalEdgeStyle;rounded=0;orthogonalLoop=1;jettySize=auto;html=1;" edge="1" parent="1" source="lww95HlzMORuhR9WTPA--57" target="lww95HlzMORuhR9WTPA--41">
          <mxGeometry relative="1" as="geometry">
            <Array as="points">
              <mxPoint x="645" y="730" />
              <mxPoint x="435" y="730" />
            </Array>
          </mxGeometry>
        </mxCell>
        <mxCell id="lww95HlzMORuhR9WTPA--82" style="edgeStyle=orthogonalEdgeStyle;rounded=0;orthogonalLoop=1;jettySize=auto;html=1;" edge="1" parent="1" source="lww95HlzMORuhR9WTPA--57" target="lww95HlzMORuhR9WTPA--40">
          <mxGeometry relative="1" as="geometry">
            <Array as="points">
              <mxPoint x="645" y="730" />
              <mxPoint x="335" y="730" />
            </Array>
          </mxGeometry>
        </mxCell>
        <mxCell id="lww95HlzMORuhR9WTPA--83" style="edgeStyle=orthogonalEdgeStyle;rounded=0;orthogonalLoop=1;jettySize=auto;html=1;" edge="1" parent="1" source="lww95HlzMORuhR9WTPA--57" target="lww95HlzMORuhR9WTPA--39">
          <mxGeometry relative="1" as="geometry">
            <Array as="points">
              <mxPoint x="645" y="730" />
              <mxPoint x="235" y="730" />
            </Array>
          </mxGeometry>
        </mxCell>
        <mxCell id="lww95HlzMORuhR9WTPA--84" style="edgeStyle=orthogonalEdgeStyle;rounded=0;orthogonalLoop=1;jettySize=auto;html=1;" edge="1" parent="1" source="lww95HlzMORuhR9WTPA--57" target="lww95HlzMORuhR9WTPA--38">
          <mxGeometry relative="1" as="geometry">
            <Array as="points">
              <mxPoint x="645" y="730" />
              <mxPoint x="135" y="730" />
            </Array>
          </mxGeometry>
        </mxCell>
        <mxCell id="lww95HlzMORuhR9WTPA--89" style="edgeStyle=orthogonalEdgeStyle;rounded=0;orthogonalLoop=1;jettySize=auto;html=1;" edge="1" parent="1" source="lww95HlzMORuhR9WTPA--57" target="lww95HlzMORuhR9WTPA--37">
          <mxGeometry relative="1" as="geometry">
            <Array as="points">
              <mxPoint x="645" y="730" />
              <mxPoint x="35" y="730" />
            </Array>
          </mxGeometry>
        </mxCell>
        <mxCell id="lww95HlzMORuhR9WTPA--57" value="" style="strokeColor=#666666;html=1;verticalLabelPosition=bottom;labelBackgroundColor=#ffffff;verticalAlign=top;outlineConnect=0;shadow=0;dashed=0;shape=mxgraph.rackGeneral.rackCabinet3;fillColor2=#f4f4f4;container=1;collapsible=0;childLayout=rack;allowGaps=1;marginLeft=9;marginRight=9;marginTop=21;marginBottom=22;textColor=#666666;numDisp=off;" vertex="1" parent="1">
          <mxGeometry x="580" y="480" width="130" height="70" as="geometry" />
        </mxCell>
        <mxCell id="lww95HlzMORuhR9WTPA--58" value="" style="strokeColor=#666666;html=1;labelPosition=right;align=left;spacingLeft=15;shadow=0;dashed=0;outlineConnect=0;shape=mxgraph.rack.general.cat5e_enhanced_patch_panel_48_ports;" vertex="1" parent="lww95HlzMORuhR9WTPA--57">
          <mxGeometry x="9" y="21" width="112" height="19" as="geometry" />
        </mxCell>
        <mxCell id="lww95HlzMORuhR9WTPA--61" style="edgeStyle=orthogonalEdgeStyle;rounded=0;orthogonalLoop=1;jettySize=auto;html=1;entryX=1;entryY=0.5;entryDx=0;entryDy=0;entryPerimeter=0;fillColor=#f8cecc;strokeColor=#b85450;" edge="1" parent="1" source="lww95HlzMORuhR9WTPA--43" target="lww95HlzMORuhR9WTPA--2">
          <mxGeometry relative="1" as="geometry">
            <Array as="points">
              <mxPoint x="520" y="185" />
              <mxPoint x="520" y="35" />
            </Array>
          </mxGeometry>
        </mxCell>
        <mxCell id="lww95HlzMORuhR9WTPA--63" style="edgeStyle=orthogonalEdgeStyle;rounded=0;orthogonalLoop=1;jettySize=auto;html=1;entryX=0.438;entryY=0;entryDx=0;entryDy=0;entryPerimeter=0;" edge="1" parent="1" source="lww95HlzMORuhR9WTPA--57" target="lww95HlzMORuhR9WTPA--26">
          <mxGeometry relative="1" as="geometry">
            <Array as="points">
              <mxPoint x="520" y="515" />
              <mxPoint x="520" y="420" />
              <mxPoint x="430" y="420" />
            </Array>
          </mxGeometry>
        </mxCell>
        <mxCell id="lww95HlzMORuhR9WTPA--64" style="edgeStyle=orthogonalEdgeStyle;rounded=0;orthogonalLoop=1;jettySize=auto;html=1;entryX=0.513;entryY=0;entryDx=0;entryDy=0;entryPerimeter=0;" edge="1" parent="1" source="lww95HlzMORuhR9WTPA--57" target="lww95HlzMORuhR9WTPA--25">
          <mxGeometry relative="1" as="geometry">
            <Array as="points">
              <mxPoint x="520" y="515" />
              <mxPoint x="520" y="420" />
              <mxPoint x="336" y="420" />
            </Array>
          </mxGeometry>
        </mxCell>
        <mxCell id="lww95HlzMORuhR9WTPA--65" style="edgeStyle=orthogonalEdgeStyle;rounded=0;orthogonalLoop=1;jettySize=auto;html=1;entryX=0.438;entryY=-0.02;entryDx=0;entryDy=0;entryPerimeter=0;" edge="1" parent="1" source="lww95HlzMORuhR9WTPA--57" target="lww95HlzMORuhR9WTPA--24">
          <mxGeometry relative="1" as="geometry">
            <Array as="points">
              <mxPoint x="520" y="515" />
              <mxPoint x="520" y="420" />
              <mxPoint x="230" y="420" />
            </Array>
          </mxGeometry>
        </mxCell>
        <mxCell id="lww95HlzMORuhR9WTPA--67" style="edgeStyle=orthogonalEdgeStyle;rounded=0;orthogonalLoop=1;jettySize=auto;html=1;entryX=0.538;entryY=0;entryDx=0;entryDy=0;entryPerimeter=0;" edge="1" parent="1" source="lww95HlzMORuhR9WTPA--57" target="lww95HlzMORuhR9WTPA--23">
          <mxGeometry relative="1" as="geometry">
            <Array as="points">
              <mxPoint x="520" y="515" />
              <mxPoint x="520" y="420" />
              <mxPoint x="138" y="420" />
            </Array>
          </mxGeometry>
        </mxCell>
        <mxCell id="lww95HlzMORuhR9WTPA--68" style="edgeStyle=orthogonalEdgeStyle;rounded=0;orthogonalLoop=1;jettySize=auto;html=1;entryX=0.463;entryY=0;entryDx=0;entryDy=0;entryPerimeter=0;" edge="1" parent="1" source="lww95HlzMORuhR9WTPA--57" target="lww95HlzMORuhR9WTPA--22">
          <mxGeometry relative="1" as="geometry">
            <Array as="points">
              <mxPoint x="520" y="515" />
              <mxPoint x="520" y="420" />
              <mxPoint x="32" y="420" />
            </Array>
          </mxGeometry>
        </mxCell>
        <mxCell id="lww95HlzMORuhR9WTPA--69" style="edgeStyle=orthogonalEdgeStyle;rounded=0;orthogonalLoop=1;jettySize=auto;html=1;entryX=0.463;entryY=0;entryDx=0;entryDy=0;entryPerimeter=0;" edge="1" parent="1" source="lww95HlzMORuhR9WTPA--57" target="lww95HlzMORuhR9WTPA--27">
          <mxGeometry relative="1" as="geometry" />
        </mxCell>
        <mxCell id="lww95HlzMORuhR9WTPA--70" style="edgeStyle=orthogonalEdgeStyle;rounded=0;orthogonalLoop=1;jettySize=auto;html=1;entryX=0.475;entryY=-0.02;entryDx=0;entryDy=0;entryPerimeter=0;" edge="1" parent="1" source="lww95HlzMORuhR9WTPA--57" target="lww95HlzMORuhR9WTPA--28">
          <mxGeometry relative="1" as="geometry" />
        </mxCell>
        <mxCell id="lww95HlzMORuhR9WTPA--72" style="edgeStyle=orthogonalEdgeStyle;rounded=0;orthogonalLoop=1;jettySize=auto;html=1;entryX=0.5;entryY=-0.02;entryDx=0;entryDy=0;entryPerimeter=0;" edge="1" parent="1" source="lww95HlzMORuhR9WTPA--57" target="lww95HlzMORuhR9WTPA--29">
          <mxGeometry relative="1" as="geometry" />
        </mxCell>
        <mxCell id="lww95HlzMORuhR9WTPA--73" style="edgeStyle=orthogonalEdgeStyle;rounded=0;orthogonalLoop=1;jettySize=auto;html=1;entryX=0.438;entryY=0;entryDx=0;entryDy=0;entryPerimeter=0;" edge="1" parent="1" source="lww95HlzMORuhR9WTPA--57" target="lww95HlzMORuhR9WTPA--30">
          <mxGeometry relative="1" as="geometry" />
        </mxCell>
        <mxCell id="lww95HlzMORuhR9WTPA--74" style="edgeStyle=orthogonalEdgeStyle;rounded=0;orthogonalLoop=1;jettySize=auto;html=1;entryX=0.5;entryY=0.02;entryDx=0;entryDy=0;entryPerimeter=0;" edge="1" parent="1" source="lww95HlzMORuhR9WTPA--57" target="lww95HlzMORuhR9WTPA--31">
          <mxGeometry relative="1" as="geometry" />
        </mxCell>
        <mxCell id="lww95HlzMORuhR9WTPA--62" style="edgeStyle=orthogonalEdgeStyle;rounded=0;orthogonalLoop=1;jettySize=auto;html=1;entryX=1;entryY=0.5;entryDx=0;entryDy=0;entryPerimeter=0;fillColor=#f8cecc;strokeColor=#b85450;" edge="1" parent="1" source="lww95HlzMORuhR9WTPA--57" target="lww95HlzMORuhR9WTPA--2">
          <mxGeometry relative="1" as="geometry">
            <Array as="points">
              <mxPoint x="520" y="515" />
              <mxPoint x="520" y="35" />
            </Array>
          </mxGeometry>
        </mxCell>
        <mxCell id="lww95HlzMORuhR9WTPA--90" style="edgeStyle=orthogonalEdgeStyle;rounded=0;orthogonalLoop=1;jettySize=auto;html=1;entryX=0;entryY=0.5;entryDx=0;entryDy=0;entryPerimeter=0;fillColor=#ffe6cc;strokeColor=#d79b00;" edge="1" parent="1" source="lww95HlzMORuhR9WTPA--32" target="lww95HlzMORuhR9WTPA--2">
          <mxGeometry relative="1" as="geometry">
            <Array as="points">
              <mxPoint x="-30" y="655" />
              <mxPoint x="-30" y="35" />
            </Array>
          </mxGeometry>
        </mxCell>
        <mxCell id="lww95HlzMORuhR9WTPA--91" style="edgeStyle=orthogonalEdgeStyle;rounded=0;orthogonalLoop=1;jettySize=auto;html=1;fillColor=#ffe6cc;strokeColor=#d79b00;" edge="1" parent="1" source="lww95HlzMORuhR9WTPA--33">
          <mxGeometry relative="1" as="geometry">
            <mxPoint x="95" y="655" as="sourcePoint" />
            <mxPoint x="190" y="35" as="targetPoint" />
            <Array as="points">
              <mxPoint x="-20" y="655" />
              <mxPoint x="-20" y="35" />
            </Array>
          </mxGeometry>
        </mxCell>
      </root>
    </mxGraphModel>
  </diagram>
</mxfile>
